<?xml version="1.0" encoding="UTF-8"?><svg id="layer" xmlns="http://www.w3.org/2000/svg" viewBox="0 0 600.1 73.3"><defs><style>.cls-1{fill:#fff;}</style></defs><path class="cls-1" d="M53.2,73.2v-12c0-8.3-6.7-15-15-15H16.7v7.1c0,1.6,1.3,2.9,2.9,2.9h18.7c2.8,0,5,2.2,5,5v12h9.9Zm17.5-12.1c0-2.8,2.2-5,5-5h18.7c1.6,0,2.9-1.3,2.9-2.9v-7.1h-21.5c-8.3,0-15,6.7-15,15v12h10l-.1-12h0Zm5-21.8h21.5v-7.1c0-1.6-1.3-2.9-2.9-2.9h-18.7c-2.8,0-5-2.2-5-5V12.2h-10v12c.1,8.4,6.8,15.1,15.1,15.1ZM25.9,29.3h-6.3c-1.6,0-2.9,1.3-2.9,2.9v7.1h21.5c8.3,0,15-6.7,15-15V12.3h-10v12c0,2.8-2.2,5-5,5h-12.3Z"/><path class="cls-1" d="M181.4,35.5l9.4,7.4,8.3-11.9,8.3,11.9,9.4-7.4-8.4-10.9,13.4-4.3-4-11-12.6,4.5V0h-11.5V13.8l-13-4.5-3.8,11,13.4,4.3-8.9,10.9Zm99.5,3.9c0-5.6,3.9-9.4,9.6-9.4,8,0,9.2,5.9,9.2,9.4v33.8h16.7V39.4c0-15.4-9.6-25.8-24-25.8-4.1,0-8,1.4-11.5,3.5V.6h-16.9V73.2h16.9V39.4ZM337.9,.2h-16.8V11.4h16.8V.2Zm0,14.7h-16.8v58.3h16.8V14.9Zm50.3,33.5c0,8.5,2.6,15.2,7.4,19.6,4.6,4.1,11.2,5.9,19,5.1l1.1-.1v-15.5l-1.3,.1c-3.3,.2-5.7-.4-7.2-1.7-1.5-1.4-2.2-3.8-2.2-7.3V30.1h10.1V14.9h-10.1V.7h-16.8V14.9h-6.7v15.2h6.7v18.3h0Zm176.3-9c0-5.7,4-9.8,9.6-9.8,8,0,9.2,6.2,9.2,9.8v33.8h16.8V39.4c0-15.4-9.2-25.8-23-25.8-5.1,0-9.5,2.2-13.2,5.5v-4.1h-16.1v58.3h16.8V39.4h-.1ZM150.7,27.3c5.7,0,10.1,3.1,12.1,8.1h-23.9c2.2-5,6.5-8.1,11.8-8.1Zm.1,45.9c13.4,0,23.8-7.1,27.7-18.7h-18.7c-2.2,2.3-5.4,3.6-9.1,3.6-5.6,0-10-3.3-12.1-8.6h41.4l.1-1.1c.2-1.5,.2-3,.2-4.5,0-9.1-2.7-16.8-8-22.6-5.4-5.9-13-9.1-21.5-9.1-16.5,0-29.8,13.7-29.8,30.6,0,16.8,13.3,30.4,29.8,30.4ZM449.5,27.3c5.7,0,10.1,3.1,12.1,8.1h-23.9c2.2-5,6.5-8.1,11.8-8.1Zm.1,45.9c13.4,0,23.8-7.1,27.7-18.7h-18.7c-2.2,2.3-5.4,3.6-9.1,3.6-5.6,0-10-3.3-12.1-8.6h41.4l.1-1.1c.1-1.5,.2-3,.2-4.5,0-9.1-2.7-16.8-8-22.6-5.4-5.9-13-9.1-21.5-9.1-16.5,0-29.8,13.7-29.8,30.6-.1,16.8,13.3,30.4,29.8,30.4Zm63.8-45.9c5.7,0,10.1,3.1,12.1,8.1h-23.9c2.2-5,6.5-8.1,11.8-8.1Zm.1,45.9c13.4,0,23.8-7.1,27.7-18.7h-18.7c-2.2,2.3-5.4,3.6-9.1,3.6-5.6,0-10-3.3-12.1-8.6h41.4l.1-1.1c.2-1.5,.2-3,.2-4.5,0-9.1-2.7-16.8-8-22.6-5.4-5.9-13-9.1-21.5-9.1-16.5,0-29.8,13.7-29.8,30.6,0,16.8,13.4,30.4,29.8,30.4Zm-154.3-28.6c0-3.9,.4-8.3,3.2-11.3,2-2.2,4.8-3.2,8.7-3.3h5.4V15l-1.1-.2c-5.6-.1-12.4,.2-16.9,4.3v-4.2h-16.1v58.3h16.8v-28.6h0Zm-127.3,4c0,8.5,2.6,15.2,7.4,19.6,4.6,4.1,11.9,5.1,19,5.1l1.1-.1v-15.3h-2.9c-2.5-.1-4.3-.6-5.6-1.8-1.5-1.4-2.3-3.8-2.3-7.3V30.3h10.1V15.1h-10.1V.9h-16.8V15.1h-6.7v15.2h6.7l.1,18.3h0ZM10,27.2c0-2.8,2.2-5,5-5h18.7c1.6,0,2.9-1.3,2.9-2.9v-7.1H15C6.7,12.2,0,18.9,0,27.2v12H10v-12Zm70.6-5h18.6c2.8,0,5,2.2,5,5v12h10v-12c0-8.3-6.7-15-15-15h-21.5v7.1c0,1.6,1.3,2.9,2.9,2.9ZM15,73.2h21.5v-7.1c0-1.6-1.3-2.9-2.9-2.9H15c-2.8,0-5-2.2-5-5v-12H0v12c0,8.3,6.7,15,15,15Zm65.6-10c-1.6,0-2.9,1.3-2.9,2.9v7.1h21.5c8.3,0,15-6.7,15-15v-12h-10v12c0,2.8-2.2,5-5,5h-18.6Z"/></svg>